<svg width="32" height="33" viewBox="0 0 32 33" fill="none" xmlns="http://www.w3.org/2000/svg">
<rect x="2.5" y="3.5" width="29" height="29" rx="4.5" stroke="white"/>
<rect width="30" height="30" rx="5" fill="#D9D9D9"/>
<path d="M22.2291 9.63879C20.4982 8.24697 17.76 8.01152 17.6436 8.00152C17.4609 7.98607 17.2873 8.0897 17.2127 8.25697C17.2073 8.26788 17.1473 8.40516 17.0809 8.61879C18.2255 8.81152 19.6318 9.20061 20.9045 9.99061C21.1082 10.117 21.1709 10.3852 21.0445 10.5897C20.9627 10.7224 20.82 10.7952 20.6745 10.7952C20.5964 10.7952 20.5173 10.7742 20.4455 10.7297C18.2582 9.37334 15.5255 9.30516 15 9.30516C14.4745 9.30516 11.7409 9.37334 9.55545 10.7297C9.35091 10.857 9.08364 10.7933 8.95636 10.5897C8.82909 10.3852 8.89273 10.1179 9.09636 9.99061C10.3691 9.20152 11.7745 8.81152 12.92 8.61879C12.8527 8.40425 12.7927 8.26788 12.7882 8.25697C12.7127 8.0897 12.54 7.98425 12.3564 8.00243C12.2409 8.01152 9.50273 8.24697 7.74818 9.65879C6.83182 10.5052 5 15.4579 5 19.7397C5 19.8152 5.02 19.8897 5.05727 19.9552C6.32182 22.1761 9.77091 22.7579 10.5573 22.7833C10.5618 22.7833 10.5664 22.7833 10.5709 22.7833C10.71 22.7833 10.8409 22.717 10.9227 22.6042L11.7182 21.5115C9.57364 20.957 8.47818 20.0161 8.41455 19.9606C8.23455 19.8015 8.21727 19.527 8.37636 19.347C8.53545 19.167 8.80909 19.1497 8.98909 19.3079C9.01545 19.3315 11.0327 21.0433 15 21.0433C18.9745 21.0433 20.9918 19.3242 21.0118 19.307C21.1918 19.1506 21.4664 19.167 21.6245 19.3479C21.7827 19.5279 21.7655 19.8015 21.5864 19.9597C21.5227 20.0161 20.4273 20.9561 18.2827 21.5106L19.0782 22.6033C19.16 22.7161 19.2909 22.7824 19.43 22.7824C19.4345 22.7824 19.4391 22.7824 19.4436 22.7824C20.23 22.7579 23.6791 22.1761 24.9436 19.9542C24.98 19.8888 25 19.8152 25 19.7397C25 15.4579 23.1682 10.5052 22.2291 9.63879ZM12.1736 18.0006C11.3336 18.0006 10.6518 17.2215 10.6518 16.2615C10.6518 15.3015 11.3327 14.5224 12.1736 14.5224C13.0145 14.5224 13.6955 15.3015 13.6955 16.2615C13.6955 17.2215 13.0145 18.0006 12.1736 18.0006ZM17.8264 18.0006C16.9864 18.0006 16.3045 17.2215 16.3045 16.2615C16.3045 15.3015 16.9855 14.5224 17.8264 14.5224C18.6664 14.5224 19.3482 15.3015 19.3482 16.2615C19.3482 17.2215 18.6664 18.0006 17.8264 18.0006Z" fill="black"/>
</svg>
