<svg width="32" height="33" viewBox="0 0 32 33" fill="none" xmlns="http://www.w3.org/2000/svg">
<rect x="2.5" y="3.5" width="29" height="29" rx="4.5" stroke="white"/>
<rect width="30" height="30" rx="5" fill="#D9D9D9"/>
<path d="M13.8775 5.06936C9.26813 5.57037 5.56062 9.27788 5.0596 13.787C4.55859 18.4966 7.26407 22.7051 11.3724 24.3083C11.673 24.4085 11.9736 24.2081 11.9736 23.8073V22.2041C11.9736 22.2041 11.5728 22.3043 11.0718 22.3043C9.66894 22.3043 9.06772 21.1018 8.96752 20.4004C8.86732 19.9996 8.66691 19.699 8.3663 19.3984C8.06569 19.2982 7.96549 19.2982 7.96549 19.198C7.96549 18.9976 8.2661 18.9976 8.3663 18.9976C8.96752 18.9976 9.46853 19.699 9.66894 19.9996C10.17 20.8012 10.7712 21.0016 11.0718 21.0016C11.4726 21.0016 11.7732 20.9014 11.9736 20.8012C12.0738 20.0998 12.3744 19.3984 12.9756 18.9976C10.671 18.4966 8.96752 17.1939 8.96752 14.9895C8.96752 13.8872 9.46853 12.785 10.17 11.9834C10.0698 11.783 9.96955 11.2819 9.96955 10.5805C9.96955 10.1797 9.96955 9.57849 10.2702 8.97727C10.2702 8.97727 11.673 8.97727 13.0758 10.2799C13.5769 10.0795 14.2783 9.9793 14.9797 9.9793C15.6811 9.9793 16.3825 10.0795 16.9838 10.2799C18.2864 8.97727 19.7894 8.97727 19.7894 8.97727C19.9898 9.57849 19.9899 10.1797 19.9899 10.5805C19.9899 11.3821 19.8896 11.783 19.7894 11.9834C20.4909 12.785 20.9919 13.787 20.9919 14.9895C20.9919 17.1939 19.2884 18.4966 16.9838 18.9976C17.585 19.4986 17.9858 20.4004 17.9858 21.3022V23.9075C17.9858 24.2081 18.2864 24.5087 18.6872 24.4085C22.3947 22.9055 25 19.2982 25 15.0897C25 9.07748 19.8896 4.36793 13.8775 5.06936Z" fill="black"/>
</svg>
