<svg width="32" height="33" viewBox="0 0 32 33" fill="none" xmlns="http://www.w3.org/2000/svg">
<rect x="2.5" y="3.5" width="29" height="29" rx="4.5" stroke="white"/>
<rect width="30" height="30" rx="5" fill="#D9D9D9"/>
<path d="M24.7488 7C24.0176 7.43404 22.5505 8.02556 21.6881 8.19618C21.6628 8.20274 21.6421 8.21117 21.6178 8.21774C20.8556 7.46591 19.8113 7 18.6555 7C16.3259 7 14.437 8.88894 14.437 11.2185C14.437 11.3413 14.4267 11.5672 14.437 11.6872C11.2937 11.6872 8.90138 10.0411 7.18586 7.93744C6.99931 8.40616 6.91776 9.14674 6.91776 9.84232C6.91776 11.1557 7.94425 12.4456 9.54259 13.2452C9.24823 13.3212 8.92388 13.3755 8.5864 13.3755C8.04175 13.3755 7.46522 13.2321 6.93744 12.7971C6.93744 12.8131 6.93744 12.8281 6.93744 12.8449C6.93744 14.6805 8.88544 15.9301 10.6178 16.2779C10.2663 16.485 9.55759 16.5057 9.21167 16.5057C8.96794 16.5057 8.10549 16.3941 7.87488 16.351C8.35673 17.8556 10.0947 18.7011 11.7512 18.7311C10.4557 19.7473 9.55665 20.1242 6.90369 20.1242H6C7.67615 21.1985 9.8107 22 11.9499 22C18.9151 22 22.8739 16.6913 22.8739 11.6872C22.8739 11.6066 22.8721 11.4378 22.8693 11.2682C22.8693 11.2513 22.8739 11.2354 22.8739 11.2185C22.8739 11.1932 22.8664 11.1688 22.8664 11.1435C22.8636 11.016 22.8608 10.8969 22.858 10.8351C23.5986 10.3007 24.2407 9.63421 24.7488 8.87488C24.0692 9.17674 23.3399 9.37923 22.574 9.4711C23.3558 9.00238 24.4667 7.88494 24.7488 7Z" fill="black"/>
</svg>
