<svg width="200" height="210" viewBox="0 0 200 210" fill="none" xmlns="http://www.w3.org/2000/svg">
<path d="M172.065 24.189L109.604 72.6132L121.155 44.0436L172.065 24.189Z" fill="#E2761B" stroke="#E2761B" stroke-linecap="round" stroke-linejoin="round"/>
<path d="M27.8719 24.189L89.8305 73.0719L78.8449 44.0436L27.8719 24.189ZM149.592 136.436L132.957 163.04L168.55 173.262L178.782 137.026L149.592 136.436ZM21.2806 137.026L31.4501 173.262L67.0433 163.04L50.408 136.436L21.2806 137.026Z" fill="#E4761B" stroke="#E4761B" stroke-linecap="round" stroke-linejoin="round"/>
<path d="M65.0345 91.4849L55.1161 107.146L90.4583 108.784L89.2028 69.1403L65.0345 91.4849ZM134.903 91.4849L110.421 68.6816L109.605 108.784L144.884 107.146L134.903 91.4849ZM67.0433 163.04L88.2612 152.228L69.931 137.288L67.0433 163.04ZM111.676 152.228L132.957 163.04L130.006 137.288L111.676 152.228Z" fill="#E4761B" stroke="#E4761B" stroke-linecap="round" stroke-linejoin="round"/>
<path d="M132.957 163.04L111.676 152.228L113.371 166.71L113.183 172.804L132.957 163.04ZM67.0433 163.04L86.8173 172.804L86.6918 166.71L88.2612 152.228L67.0433 163.04Z" fill="#D7C1B3" stroke="#D7C1B3" stroke-linecap="round" stroke-linejoin="round"/>
<path d="M87.1312 127.721L69.4288 122.283L81.9209 116.32L87.1312 127.721ZM112.806 127.721L118.016 116.32L130.571 122.283L112.806 127.721Z" fill="#233447" stroke="#233447" stroke-linecap="round" stroke-linejoin="round"/>
<path d="M67.0433 163.04L70.0565 136.436L50.408 137.026L67.0433 163.04ZM129.943 136.436L132.957 163.04L149.592 137.026L129.943 136.436ZM144.884 107.146L109.605 108.784L112.869 127.721L118.079 116.32L130.634 122.283L144.884 107.146ZM69.4287 122.283L81.9837 116.32L87.1312 127.721L90.4582 108.784L55.1161 107.146L69.4287 122.283Z" fill="#CD6116" stroke="#CD6116" stroke-linecap="round" stroke-linejoin="round"/>
<path d="M55.1161 107.146L69.931 137.288L69.4288 122.283L55.1161 107.146ZM130.634 122.283L130.006 137.288L144.884 107.146L130.634 122.283ZM90.4583 108.784L87.1312 127.721L91.2743 150.066L92.216 120.645L90.4583 108.784ZM109.605 108.784L107.91 120.579L108.663 150.066L112.869 127.721L109.605 108.784Z" fill="#E4751F" stroke="#E4751F" stroke-linecap="round" stroke-linejoin="round"/>
<path d="M112.869 127.721L108.663 150.066L111.676 152.228L130.006 137.288L130.634 122.282L112.869 127.721ZM69.4288 122.282L69.931 137.288L88.2612 152.228L91.2743 150.066L87.1312 127.721L69.4288 122.282Z" fill="#F6851B" stroke="#F6851B" stroke-linecap="round" stroke-linejoin="round"/>
<path d="M113.183 172.804L113.371 166.71L111.802 165.268H88.1356L86.6918 166.71L86.8173 172.804L67.0433 163.04L73.9485 168.938L87.9473 179.094H111.99L126.051 168.938L132.957 163.04L113.183 172.804Z" fill="#C0AD9E" stroke="#C0AD9E" stroke-linecap="round" stroke-linejoin="round"/>
<path d="M111.676 152.228L108.663 150.066H91.2743L88.2611 152.228L86.6918 166.71L88.1356 165.268H111.802L113.371 166.71L111.676 152.228Z" fill="#161616" stroke="#161616" stroke-linecap="round" stroke-linejoin="round"/>
<path d="M174.702 75.7585L180.038 49.0236L172.065 24.189L111.676 70.9751L134.903 91.4849L167.734 101.511L175.016 92.6644L171.877 90.3055L176.899 85.522L173.007 82.3767L178.029 78.3796L174.702 75.7585ZM19.9623 49.0236L25.2982 75.7585L21.9084 78.3796L26.9303 82.3767L23.1011 85.522L28.123 90.3055L24.9843 92.6644L32.2034 101.511L65.0345 91.4849L88.2612 70.9751L27.8719 24.189L19.9623 49.0236Z" fill="#763D16" stroke="#763D16" stroke-linecap="round" stroke-linejoin="round"/>
<path d="M167.734 101.511L134.903 91.4851L144.884 107.146L130.006 137.288L149.592 137.026H178.782L167.734 101.511ZM65.0345 91.4851L32.2034 101.511L21.2806 137.026H50.408L69.931 137.288L55.1161 107.146L65.0345 91.4851ZM109.605 108.784L111.676 70.9752L121.218 44.0437H78.8449L88.2611 70.9752L90.4583 108.784L91.2116 120.71L91.2743 150.066H108.663L108.788 120.71L109.605 108.784Z" fill="#F6851B" stroke="#F6851B" stroke-linecap="round" stroke-linejoin="round"/>
</svg>
